<?xml version="1.0" encoding="iso-8859-1"?>
<!-- Generator: Adobe Illustrator 19.0.0, SVG Export Plug-In . SVG Version: 6.00 Build 0)  -->
<svg version="1.1" id="Layer_1" xmlns="http://www.w3.org/2000/svg" xmlns:xlink="http://www.w3.org/1999/xlink" x="0px" y="0px"
	 viewBox="0 0 512 512" style="enable-background:new 0 0 512 512;" xml:space="preserve">
<g transform="translate(1 1)">
	<g>
		<g>
			<path d="M152.173-1c-42.667,0-76.8,34.133-76.8,76.8v9.007C36.78,89.006,7.107,121.354,7.107,161.133v34.133V229.4v273.067
				c0,5.12,3.413,8.533,8.533,8.533h42.667h51.2h42.667h68.267c5.12,0,8.533-3.413,8.533-8.533V161.133V127V75.8
				C228.973,33.133,194.84-1,152.173-1z M211.907,152.6h-51.674c-0.236-2.17-0.56-4.311-0.97-6.42
				c-0.03-0.173-0.06-0.345-0.091-0.517c-0.01-0.049-0.019-0.098-0.029-0.147c-0.655-3.512-1.675-6.903-2.701-9.983h55.467V152.6z
				 M143.64,493.933h-25.6v-256h25.6V493.933z M24.173,203.8H143.64v17.067h-34.133h-51.2H24.173V203.8z M100.973,340.333V357.4
				H66.84v-17.067H100.973z M66.84,323.267V306.2h34.133v17.067H66.84z M100.973,374.467v17.067H66.84v-17.067H100.973z
				 M100.973,289.133H66.84v-17.067h34.133V289.133z M66.84,408.6h34.133v17.067H66.84V408.6z M100.973,237.933V255H66.84v-17.067
				H100.973z M66.84,442.733h34.133V459.8H66.84V442.733z M24.173,161.133c0-33.28,26.453-59.733,59.733-59.733
				c0.909,0,1.81,0.028,2.708,0.067c0.251,0.011,0.503,0.023,0.753,0.037c0.835,0.047,1.666,0.106,2.491,0.186
				c0.32,0.031,0.637,0.073,0.955,0.109c0.493,0.055,0.984,0.117,1.473,0.184c0.469,0.065,0.937,0.131,1.403,0.207
				c0.141,0.023,0.28,0.05,0.42,0.074c17.244,2.938,32.416,13.271,40.997,29.003c0.511,0.767,1.109,1.445,1.774,2.036
				c2.08,3.995,3.734,8.256,4.877,12.736c0.028,0.109,0.052,0.219,0.078,0.329c0.174,0.699,0.331,1.404,0.481,2.113
				c0.064,0.305,0.129,0.61,0.188,0.915c0.146,0.75,0.28,1.505,0.398,2.265c0.049,0.316,0.09,0.632,0.134,0.948
				c0.083,0.594,0.158,1.191,0.224,1.791c0.03,0.276,0.064,0.552,0.091,0.828c0.079,0.829,0.141,1.663,0.187,2.502
				c0.013,0.228,0.022,0.457,0.032,0.686c0.039,0.901,0.067,1.805,0.067,2.717v25.6H24.173V161.133z M24.173,237.933h25.6v256h-25.6
				V237.933z M66.84,493.933v-17.067h34.133v17.067H66.84z M211.907,493.933h-51.2V229.4v-34.133v-25.6h51.2V493.933z
				 M211.907,118.467h-64c-0.014-0.02-0.029-0.039-0.043-0.06c-12.243-18.378-32.219-31.076-55.424-33.6V75.8
				c0-33.28,26.453-59.733,59.733-59.733c33.28,0,59.733,26.453,59.733,59.733V118.467z"/>
			<path d="M441.453,230.253l58.88-60.587c3.413-3.413,3.413-8.533,0-11.947l-34.987-35.84c-1.707-1.707-3.413-2.56-5.973-2.56
				c-1.707,0-4.267,0.853-5.973,2.56l-53.006,53.006c-6.553-2.635-13.673-3.819-20.924-3.823l12.49-12.49
				c1.707-1.707,2.56-3.413,2.56-5.973s-0.853-4.267-2.56-5.973L331.373,86.04c-3.413-3.413-8.533-3.413-11.947,0l-35.84,35.84
				c-1.707,1.707-2.56,3.413-2.56,5.973s0.853,4.267,2.56,5.973l49.869,49.869c-4.344,3.686-8.172,7.944-11.351,12.542l-1.824-1.824
				c-3.413-3.413-8.533-3.413-11.947,0L247.747,255c-3.413,3.413-3.413,8.533,0,11.947l35.84,35.84
				c1.707,1.707,3.413,2.56,5.973,2.56c2.56,0,4.267-0.853,5.973-2.56l12.505-12.505L297.24,501.613c0,2.56,0.853,5.12,2.56,6.827
				c1.707,1.707,3.413,2.56,5.973,2.56h51.2h34.133h51.2c2.56,0,4.267-1.707,5.973-3.413c1.707-1.707,2.56-3.413,2.56-5.973
				l-9.259-175.915l22.912-22.912c3.413-3.413,3.413-8.533,0-11.947l-25.678-25.678l-1.43-32.88
				C438.65,231.86,440.049,231.19,441.453,230.253z M457.667,139.8l23.04,23.893l-46.933,48.64l-21.686-21.686
				c-0.697-0.957-1.321-1.82-1.856-2.565L457.667,139.8z M385.552,188.874l-11.512,11.512l-11.439-11.439
				C370.225,187.085,378.319,186.914,385.552,188.874z M325.4,103.96l48.64,48.64l-23.242,23.242
				c-0.376,0.039-0.768,0.081-1.175,0.129l-48.117-48.117L325.4,103.96z M345.88,196.973c0.396,0.396,0.978,0.604,1.571,0.718
				l15.069,15.069l-11.947,11.947l-15.613-15.613C338.047,204.501,341.272,200.045,345.88,196.973z M289.56,284.867l-23.893-23.893
				l47.787-48.64l3.401,3.284c0.262,0.339,0.551,0.668,0.866,0.983l19.627,19.627l-25.6,25.6c-0.749,0.749-1.324,1.664-1.744,2.597
				L289.56,284.867z M365.507,493.933v-42.667c0-5.12,3.413-8.533,8.533-8.533s8.533,3.413,8.533,8.533v42.667H365.507z
				 M399.64,493.933v-42.667c0-14.507-11.093-25.6-25.6-25.6s-25.6,11.093-25.6,25.6v42.667h-33.28l11.093-221.867l0.001-0.001
				l29.012-28.159c0.162-0.162,0.309-0.331,0.456-0.501c0.134-0.116,0.272-0.227,0.398-0.353l18.347-18.347l11.52,11.52
				l-29.867,29.867c-1.812,1.812-2.652,4.106-2.54,6.37c-0.007,0.152-0.02,0.298-0.02,0.457c0,2.56,0.853,4.267,2.56,5.973
				l60.587,60.587c1.707,1.707,3.413,2.56,5.973,2.56c0.853,0,1.707-0.853,2.56-0.853l8.533,152.747H399.64z M426.947,317.293
				l-4.267,4.267l-48.64-48.64l23.893-23.893l48.64,48.64L426.947,317.293z M403.907,230.253l-17.92-17.92l11.947-11.947
				l19.627,19.627c0.853,3.413,1.707,6.827,1.707,10.24l0.808,16.169L403.907,230.253z"/>
		</g>
	</g>
</g>
<g>
</g>
<g>
</g>
<g>
</g>
<g>
</g>
<g>
</g>
<g>
</g>
<g>
</g>
<g>
</g>
<g>
</g>
<g>
</g>
<g>
</g>
<g>
</g>
<g>
</g>
<g>
</g>
<g>
</g>
</svg>
