<?xml version="1.0" standalone="no"?>
<!DOCTYPE svg PUBLIC "-//W3C//DTD SVG 20010904//EN"
 "http://www.w3.org/TR/2001/REC-SVG-20010904/DTD/svg10.dtd">
<svg version="1.0" xmlns="http://www.w3.org/2000/svg"
 width="951.000000pt" height="1280.000000pt" viewBox="0 0 951.000000 1280.000000"
 preserveAspectRatio="xMidYMid meet">
<metadata>
Created by potrace 1.15, written by Peter Selinger 2001-2017
</metadata>
<g transform="translate(0.000000,1280.000000) scale(0.100000,-0.100000)"
fill="#000000" stroke="none">
<path d="M4005 11644 c-16 -2 -77 -11 -135 -20 -188 -28 -480 -138 -655 -248
-123 -77 -183 -125 -280 -227 -133 -141 -199 -250 -255 -424 -27 -84 -33 -121
-37 -230 -9 -210 25 -386 107 -563 l39 -82 -92 -76 c-324 -269 -499 -620 -498
-1001 0 -247 68 -497 195 -722 20 -34 36 -66 36 -71 0 -4 -30 -43 -66 -86
-167 -200 -238 -370 -279 -669 -23 -166 -4 -304 73 -522 49 -140 86 -206 206
-367 l96 -129 -24 -171 c-43 -297 -56 -464 -59 -725 l-3 -254 -37 -13 c-92
-32 -191 -129 -239 -234 -68 -149 -131 -396 -147 -577 -16 -193 21 -456 93
-646 60 -158 103 -237 185 -337 103 -128 323 -338 421 -402 182 -119 406 -214
600 -254 63 -13 128 -28 145 -34 152 -48 410 -67 1005 -75 300 -4 527 -13 870
-34 74 -5 164 -7 200 -5 443 25 619 58 899 171 144 57 257 120 436 241 126 85
176 126 334 272 230 212 294 325 428 755 60 191 37 354 -98 691 -11 28 -10 35
10 63 37 51 147 290 174 377 34 108 50 232 42 324 -12 139 -36 282 -56 333
-34 85 -114 189 -245 317 -87 85 -122 125 -116 133 21 26 120 216 145 277 37
95 77 312 77 423 0 103 -29 286 -61 379 -59 176 -122 257 -253 324 -42 22 -76
42 -76 47 0 9 41 72 95 147 50 70 76 128 115 261 40 136 50 205 50 352 0 180
-47 373 -136 548 -67 135 -104 188 -222 327 -84 100 -120 134 -188 178 -46 30
-122 79 -169 109 l-85 55 19 38 c33 65 50 129 76 278 53 306 20 481 -144 765
-159 276 -312 427 -611 606 -144 86 -286 145 -611 253 -213 71 -352 105 -499
120 -58 5 -148 15 -200 21 -99 11 -543 21 -595 13z"/>
</g>
</svg>
