<?xml version="1.0" standalone="no"?>
<!DOCTYPE svg PUBLIC "-//W3C//DTD SVG 20010904//EN"
 "http://www.w3.org/TR/2001/REC-SVG-20010904/DTD/svg10.dtd">
<svg version="1.0" xmlns="http://www.w3.org/2000/svg"
 width="958.000000pt" height="1280.000000pt" viewBox="0 0 958.000000 1280.000000"
 preserveAspectRatio="xMidYMid meet">
<metadata>
Created by potrace 1.15, written by Peter Selinger 2001-2017
</metadata>
<g transform="translate(0.000000,1280.000000) scale(0.100000,-0.100000)"
fill="#000000" stroke="none">
<path d="M3825 12789 c-159 -21 -314 -82 -359 -143 -20 -27 -21 -38 -18 -359
3 -365 16 -1613 32 -3142 31 -2822 37 -3453 32 -3489 -2 -21 -8 -33 -11 -27
-10 15 -153 32 -261 30 -104 -1 -281 -18 -295 -29 -5 -4 -28 -11 -49 -15 -61
-10 -130 -50 -172 -97 -22 -26 -31 -32 -20 -15 l17 28 -25 -16 c-17 -11 -40
-16 -65 -13 -36 3 -39 2 -30 -17 6 -11 0 -6 -12 10 -46 60 -106 108 -179 144
-71 34 -81 36 -175 36 -88 0 -107 -3 -158 -27 -36 -17 -81 -51 -118 -88 l-59
-61 -1 -167 c-1 -100 -5 -153 -9 -132 -7 31 -7 32 -9 8 -1 -18 -7 -28 -16 -28
-13 0 -13 -4 2 -27 l17 -28 -24 24 c-51 52 -157 68 -216 32 l-32 -19 -6 36
c-21 127 -17 308 18 902 20 338 40 628 44 643 6 24 34 -43 167 -397 88 -234
161 -424 162 -422 4 3 -361 1204 -368 1210 -2 3 -19 -223 -37 -502 -18 -279
-37 -520 -42 -537 -5 -18 -9 135 -10 370 -1 220 -5 677 -9 1015 l-8 614 29 46
c66 103 98 281 105 572 6 232 -5 381 -37 531 -22 101 -64 202 -93 222 -18 13
-20 33 -28 397 -4 211 -8 407 -8 436 -1 28 -5 52 -11 52 -7 0 -10 -153 -10
-439 0 -359 -2 -441 -14 -450 -19 -16 -62 -115 -81 -186 -56 -217 -61 -673
-10 -930 23 -113 69 -225 100 -242 13 -8 16 -112 25 -777 6 -423 9 -770 7
-772 -2 -2 -9 80 -16 184 -7 103 -15 189 -18 192 -3 3 -3 -47 1 -110 49 -852
55 -1263 27 -1625 l-17 -220 -8 135 c-8 158 -56 1856 -57 2040 0 79 -4 118 -9
105 -5 -11 -9 -239 -9 -506 -1 -267 -4 -777 -8 -1132 l-6 -647 -32 0 c-39 0
-33 -35 -71 404 l-25 299 21 431 c11 237 22 490 25 561 l4 130 -9 -100 c-5
-55 -21 -242 -35 -415 -15 -173 -28 -317 -31 -319 -2 -2 -4 5 -4 17 0 37 -150
1735 -153 1739 -2 1 -61 -147 -132 -330 -70 -182 -188 -487 -261 -676 -74
-189 -133 -346 -131 -347 2 -2 106 212 232 476 221 460 230 478 237 442 4 -20
42 -486 84 -1035 l76 -999 -14 -150 -13 -151 -69 -14 -69 -14 -25 26 c-79 86
-228 67 -279 -35 -12 -25 -23 -57 -23 -72 0 -16 -2 -28 -4 -28 -2 0 -28 11
-57 24 -110 50 -249 52 -342 4 -23 -11 -67 -45 -99 -76 l-58 -55 0 -172 0
-173 63 -59 c35 -32 93 -74 130 -93 66 -35 81 -53 52 -63 -8 -4 -24 -25 -36
-48 -32 -64 -24 -142 20 -181 17 -15 39 -28 48 -28 9 0 -3 -13 -28 -28 -56
-37 -73 -56 -100 -116 l-21 -48 28 -29 c33 -34 107 -59 176 -59 l48 0 -17 -27
c-23 -34 -25 -142 -4 -167 15 -18 9 -28 -24 -39 -26 -9 47 -118 118 -175 l53
-42 -63 -63 -63 -64 0 -165 0 -166 63 -57 c120 -109 258 -165 406 -166 142 0
227 36 268 115 14 26 16 27 25 12 7 -13 4 -23 -16 -43 -46 -46 -46 -119 0
-181 73 -95 247 -97 327 -3 l26 32 38 -25 c21 -13 54 -40 73 -60 19 -21 58
-51 85 -69 106 -67 193 -134 255 -197 68 -69 139 -110 189 -110 17 0 46 -9 65
-21 31 -18 34 -23 23 -40 -10 -16 -6 -24 28 -60 45 -46 222 -139 266 -139 18
0 30 -6 33 -18 9 -27 76 -92 134 -129 65 -42 147 -55 185 -30 22 14 28 14 73
-8 27 -14 54 -25 60 -25 6 0 17 -7 24 -15 7 -9 29 -15 51 -15 28 0 39 -5 44
-19 10 -32 105 -120 160 -146 71 -35 115 -41 153 -21 18 9 32 24 32 33 0 21
-39 83 -52 83 -6 0 -9 3 -5 6 3 3 21 1 40 -5 27 -9 36 -19 45 -49 16 -52 61
-93 114 -102 24 -5 67 -24 94 -43 28 -18 73 -39 100 -46 27 -7 68 -19 91 -28
24 -8 55 -13 70 -12 21 2 39 -8 70 -38 99 -97 259 -139 317 -83 15 13 25 29
23 35 -2 5 -1 19 3 29 6 18 9 16 26 -13 10 -18 34 -41 51 -53 18 -11 33 -26
33 -33 0 -7 8 -23 19 -36 l18 -23 -48 -22 c-51 -24 -79 -63 -79 -109 0 -40 81
-120 146 -145 94 -35 165 -22 217 39 l27 33 26 -32 c45 -53 102 -73 144 -50
16 9 17 14 8 43 -6 17 -25 53 -43 78 l-32 45 28 13 c27 12 32 10 67 -17 20
-16 46 -40 57 -52 25 -28 87 -60 116 -60 17 0 20 -4 15 -22 -17 -59 -17 -77
-1 -107 20 -40 49 -51 129 -51 79 0 157 36 195 91 15 22 40 43 59 49 34 12 52
36 52 68 0 14 9 21 29 25 16 4 39 16 50 28 l21 23 23 -23 c13 -12 40 -24 60
-28 l35 -5 -20 -34 c-38 -64 -18 -143 40 -165 42 -16 142 -6 190 19 l42 21 24
-24 c22 -22 34 -25 93 -24 37 0 88 4 113 7 37 6 51 4 79 -15 19 -13 52 -28 75
-34 22 -6 53 -22 69 -35 16 -13 41 -24 58 -24 32 0 35 -6 14 -33 -23 -32 -28
-92 -10 -127 20 -38 49 -50 127 -50 79 0 136 27 191 91 23 27 47 49 53 49 7 0
22 9 35 19 19 15 29 17 49 9 14 -5 54 -13 89 -16 53 -6 65 -10 67 -26 11 -79
36 -97 132 -99 56 -1 76 4 114 25 l46 25 26 -25 c24 -25 31 -26 113 -24 148 4
191 26 181 93 -5 32 -9 30 119 59 65 15 87 37 81 85 -4 32 -1 36 21 41 15 3
40 9 57 14 23 5 36 3 53 -11 13 -11 36 -19 52 -19 34 0 33 1 14 -36 -29 -57
-14 -130 32 -155 33 -18 129 -17 173 0 92 37 159 127 146 196 l-6 33 65 4 c69
4 96 20 109 64 5 17 0 25 -29 38 -19 9 -58 20 -86 23 -41 5 -49 9 -43 22 4 9
9 29 12 44 4 27 6 28 41 20 106 -24 215 7 248 71 25 48 28 147 8 221 -9 36
-15 72 -12 80 4 8 27 20 53 26 59 15 124 74 124 113 0 15 -7 38 -16 51 l-16
24 34 -9 c83 -24 187 0 213 50 13 25 12 29 -9 49 -12 12 -46 30 -74 40 -29 10
-63 27 -75 39 -13 12 -36 24 -53 28 l-30 6 23 46 c19 39 21 53 13 81 -13 48
-36 69 -81 76 l-39 7 41 46 c75 85 113 188 114 307 0 59 -4 77 -27 116 -64
109 -182 179 -301 179 -53 0 -71 -5 -111 -31 -73 -45 -141 -121 -179 -198
l-35 -70 -12 29 c-30 72 -157 150 -245 150 -53 0 -95 -20 -95 -46 0 -8 -4 -14
-9 -14 -25 0 -12 32 46 109 76 101 98 162 98 281 0 92 -20 169 -57 215 -11 14
-19 27 -17 28 3 1 22 18 43 37 22 19 36 29 32 23 -23 -41 89 31 127 80 32 42
53 93 92 217 32 104 88 199 164 279 57 59 57 61 37 75 -19 14 -18 14 11 4 24
-9 47 -9 95 0 52 9 69 18 96 47 27 29 32 42 32 85 0 41 -5 55 -29 82 -27 31
-34 33 -88 32 l-58 -1 44 9 c42 9 43 10 20 22 -13 7 -35 19 -49 26 -14 8 -30
15 -36 16 -6 1 -29 14 -52 28 -23 14 -44 26 -47 26 -2 0 -33 14 -67 31 -73 35
-179 77 -211 82 -36 6 -80 27 -115 53 -39 31 -69 88 -111 216 -22 65 -38 98
-49 101 -9 2 21 7 68 11 161 14 408 63 437 88 9 7 12 95 13 336 0 180 5 653
10 1052 5 399 15 1259 21 1912 14 1346 23 1203 -75 1251 -123 61 -363 88 -602
69 -179 -15 -271 -33 -344 -70 l-55 -27 0 -163 c0 -89 -3 -162 -7 -162 -5 0
-8 7 -8 16 0 24 -41 93 -59 98 -9 3 -185 8 -391 11 -206 3 -376 7 -378 9 -1 2
214 309 479 682 265 374 518 730 562 793 l80 114 0 86 c0 107 -21 192 -75 299
-76 152 -234 294 -391 350 -147 53 -373 28 -461 -52 -19 -17 -371 -479 -782
-1026 -411 -547 -758 -1008 -771 -1025 -13 -16 -34 -42 -46 -58 l-22 -27 -235
31 c-129 17 -236 32 -236 33 -1 0 -7 159 -13 351 -7 193 -15 389 -18 436 l-5
86 31 13 c85 35 126 133 125 295 0 166 1 163 -259 731 l-197 429 8 605 7 605
-34 45 c-46 60 -115 105 -208 134 -138 44 -308 56 -476 35z m773 -2790 c23
-26 68 -60 100 -77 l58 -31 17 -243 c10 -134 17 -325 17 -425 l0 -183 -32 0
c-31 0 -134 13 -205 25 l-33 6 1 512 c0 484 1 511 17 487 9 -14 36 -46 60 -71z
m169 -1386 c22 -5 23 -8 25 -187 l3 -181 -36 -55 c-20 -30 -85 -117 -143 -194
l-106 -138 0 387 0 388 118 -7 c64 -4 127 -9 139 -13z m260 -22 l32 -6 -105
-140 c-58 -77 -117 -151 -132 -165 -16 -15 -19 -17 -9 -4 14 17 18 51 24 177
l6 156 76 -5 c42 -4 90 -9 108 -13z m2592 -811 c6 -415 14 -795 16 -843 l6
-88 -28 3 -28 3 3 300 c1 165 5 393 8 508 l6 207 -43 19 c-78 34 -182 44 -406
38 -207 -5 -284 -16 -313 -42 -16 -14 -15 -127 4 -735 l6 -196 -645 85 c-355
47 -645 88 -645 92 0 3 207 298 460 655 l461 649 47 -3 c103 -5 810 -52 862
-57 30 -3 67 -8 83 -11 23 -5 33 0 60 29 19 20 41 59 51 91 10 32 19 56 21 54
1 -2 8 -343 14 -758z m-1529 -1156 c420 -47 765 -86 766 -87 2 -1 8 -184 13
-406 6 -223 13 -406 15 -408 8 -8 147 -32 221 -39 l80 -7 -50 -18 c-27 -10
-60 -18 -71 -18 -12 -1 -46 -12 -75 -25 -36 -16 -89 -28 -159 -35 -58 -7 -112
-13 -120 -15 -8 -1 -49 -8 -90 -15 -41 -7 -97 -17 -123 -22 -26 -5 -65 -9 -85
-10 -33 -1 -34 -2 -12 -9 15 -5 -25 -8 -106 -9 -208 -2 -347 -48 -463 -154
-31 -28 -50 -45 -43 -37 6 8 12 18 12 23 0 5 -6 5 -12 -1 -7 -6 -30 -13 -50
-17 -21 -4 -38 -12 -38 -19 0 -7 -3 -7 -8 -1 -4 6 -26 7 -52 4 -25 -3 -34 -7
-20 -8 14 -1 30 -5 37 -9 6 -4 -42 -7 -108 -7 -65 0 -111 3 -101 7 9 4 28 7
41 7 39 1 21 9 -37 15 -28 3 -68 13 -88 21 -50 21 -55 19 -48 -12 3 -16 -8 0
-25 33 -55 108 -164 190 -281 212 -49 10 -168 15 -329 14 -41 0 -71 -9 -123
-34 l-68 -34 0 136 0 136 43 21 c106 51 150 103 446 521 280 395 285 400 315
396 17 -3 375 -43 796 -90z m1550 -180 c3 -3 6 -144 8 -313 l4 -308 -41 -10
-41 -11 0 322 c0 178 3 326 7 330 7 7 53 -1 63 -10z m-940 -887 c0 -2 -12 -14
-27 -28 l-28 -24 24 28 c23 25 31 32 31 24z m-237 -64 c-7 -2 -19 -2 -25 0 -7
3 -2 5 12 5 14 0 19 -2 13 -5z m1204 -596 c2 -55 0 -76 -7 -62 -5 11 -9 44 -9
73 -1 49 -2 52 -20 42 -11 -5 -23 -10 -28 -10 -4 1 8 9 27 20 19 11 35 19 35
20 0 0 1 -37 2 -83z m-3244 -213 c-7 -19 -10 -18 -16 5 -3 13 -1 18 9 14 7 -2
10 -11 7 -19z m3285 -1646 c15 3 30 10 34 15 4 7 12 6 22 -3 14 -11 16 -10 10
6 -4 10 11 -8 33 -41 22 -33 74 -92 115 -130 l76 -71 -41 -23 c-22 -13 -60
-42 -84 -64 l-44 -41 8 30 c14 52 6 166 -16 217 -38 88 -88 117 -141 80 -22
-16 -23 -16 -17 1 4 10 8 30 8 44 l2 27 4 -26 c3 -22 8 -25 31 -21z"/>
<path d="M7098 5663 c7 -3 16 -2 19 1 4 3 -2 6 -13 5 -11 0 -14 -3 -6 -6z"/>
<path d="M6930 5620 c-52 -15 -59 -19 -32 -19 32 -1 102 22 102 33 0 4 -1 6
-2 5 -2 -1 -32 -9 -68 -19z"/>
<path d="M1302 6830 c0 -14 2 -19 5 -12 2 6 2 18 0 25 -3 6 -5 1 -5 -13z"/>
</g>
</svg>
